<svg xmlns="http://www.w3.org/2000/svg" xmlns:xlink="http://www.w3.org/1999/xlink" width="103" height="103" viewBox="0 0 103 103">
  <defs>
    <clipPath id="clip-path">
      <rect id="Rectangle_180" data-name="Rectangle 180" width="53.279" height="65.89" fill="none"/>
    </clipPath>
  </defs>
  <g id="Group_181" data-name="Group 181" transform="translate(24.719 17.555)">
    <circle id="Ellipse_33" data-name="Ellipse 33" cx="51.5" cy="51.5" r="51.5" transform="translate(-24.719 -17.555)" fill="#efefef"/>
    <g id="Group_180" data-name="Group 180" clip-path="url(#clip-path)">
      <path id="Path_126" data-name="Path 126" d="M27.968,0A17.141,17.141,0,1,1,10.827,17.141,17.141,17.141,0,0,1,27.968,0" fill="#fbc7b2"/>
      <path id="Path_127" data-name="Path 127" d="M28.6,37.288a1,1,0,0,0-1.414,0L23.8,40.68a1,1,0,1,0,1.414,1.414L28.6,38.7a1,1,0,0,0,0-1.414" fill="#040506"/>
      <path id="Path_128" data-name="Path 128" d="M32.9,51.937l-.664,8.623,1.994.153.726-9.426-3.431-4.166a15.571,15.571,0,0,0,1.713-1.474c.259-.259.488-.537.724-.811l8.337,2.3,8.219-4.612-.979-1.744-7.5,4.209-6.777-1.865a13.448,13.448,0,0,0,1.6-3.608l7.8.927,8.616-9.269-1.465-1.362L43.89,38.332l-6.646-.79a9.868,9.868,0,0,0,0-1.982A5.894,5.894,0,0,0,40.455,33.9a5.976,5.976,0,0,0,1.683-5.093l1.425-1.425a1,1,0,1,0-1.414-1.414l-.732.733a5.822,5.822,0,0,0-2.231-2.231l.733-.732a1,1,0,1,0-1.414-1.415l-1.426,1.426a5.974,5.974,0,0,0-5.092,1.682,5.9,5.9,0,0,0-1.657,3.214,9.868,9.868,0,0,0-1.982,0L27.558,22l8.525-7.924-1.362-1.465-9.269,8.615.927,7.8a13.467,13.467,0,0,0-3.609,1.6L20.905,23.85l4.21-7.5-1.744-.979-4.613,8.218,2.3,8.338c-.273.236-.551.465-.81.723a16.465,16.465,0,0,0-1.478,1.711L14.6,30.932l-9.425.726.153,1.994,8.623-.665,3.706,3.052a15.325,15.325,0,0,0-1.34,3.032l-4.941-.587L0,44.705l.959,1.754,10.817-5.914,4.078.484c-.438,2.813.133,5.452,1.844,7.163,1.816,1.816,4.445,2.288,7.162,1.837l.485,4.085L19.431,64.931l1.754.959,6.221-11.378-.589-4.961a16.022,16.022,0,0,0,3.021-1.336Zm6.139-25.088a3.993,3.993,0,0,1,0,5.64,3.917,3.917,0,0,1-2.22,1.114,7.4,7.4,0,0,0-1.733-2.778l-.009-.014s-.01-.005-.014-.01a7.4,7.4,0,0,0-2.779-1.732,3.925,3.925,0,0,1,1.115-2.22,3.993,3.993,0,0,1,5.64,0M19.914,47.39,22.8,44.508a1,1,0,1,0-1.414-1.414L18.5,45.976c-1.8-2.937-.478-8.277,3.157-11.912,2.721-2.721,6.391-4.012,9.352-3.29a5.787,5.787,0,0,1,1.869.824l-2.9,2.9A1,1,0,0,0,31.4,35.909l2.9-2.9a5.764,5.764,0,0,1,.823,1.869c.722,2.961-.569,6.631-3.289,9.351-3.635,3.636-8.975,4.956-11.912,3.158" fill="#040506"/>
    </g>
  </g>
</svg>
