<svg xmlns="http://www.w3.org/2000/svg" xmlns:xlink="http://www.w3.org/1999/xlink" width="103" height="103" viewBox="0 0 103 103">
  <defs>
    <clipPath id="clip-path">
      <rect id="Rectangle_184" data-name="Rectangle 184" width="55.709" height="43.725" transform="translate(0 0)" fill="none"/>
    </clipPath>
  </defs>
  <g id="Group_189" data-name="Group 189" transform="translate(19.291 29.637)">
    <circle id="Ellipse_30" data-name="Ellipse 30" cx="51.5" cy="51.5" r="51.5" transform="translate(-19.291 -29.637)" fill="#efefef"/>
    <g id="Group_188" data-name="Group 188" clip-path="url(#clip-path)">
      <path id="Path_137" data-name="Path 137" d="M17.141,7.382A17.141,17.141,0,1,1,0,24.523,17.141,17.141,0,0,1,17.141,7.382" fill="#fbc7b2"/>
      <path id="Path_138" data-name="Path 138" d="M17.355,31.8a5.151,5.151,0,0,1-1.273-1.573l-3.456-8.037V15.429a1.211,1.211,0,0,1,.895-.182c.664.142.993.933,1.153,1.57a15.893,15.893,0,0,1,.391,2.947.962.962,0,0,0,1.062.9,1.026,1.026,0,0,0,.93-1.094,17.238,17.238,0,0,0-.443-3.238c-.633-2.534-2.336-3.248-3.7-3.085-1.124.138-2.285.918-2.285,1.985v7.159a.99.99,0,0,0,.081.4L14.242,31a7.041,7.041,0,0,0,1.873,2.36l4.909,3.848v5.512a1,1,0,1,0,2,0v-6a1,1,0,0,0-.383-.787Z" fill="#161615"/>
      <path id="Path_139" data-name="Path 139" d="M25.576,26.344l-3.115-3.108c-2.426-2.426-5.144-2.6-7.271-.476a1,1,0,0,0,0,1.415l6.517,6.506a1,1,0,0,0,1.413-1.415L17.405,23.56c1.113-.6,2.312-.239,3.642,1.091l3.35,3.342a.977.977,0,0,0,.616.274,6.611,6.611,0,0,1,4.926,6.342v8.116a1,1,0,1,0,2,0V34.609a8.609,8.609,0,0,0-6.363-8.265" fill="#161615"/>
      <path id="Path_140" data-name="Path 140" d="M53.424,13.248c-1.382-.169-3.071.553-3.7,3.086a22.976,22.976,0,0,0-.447,3.3,1,1,0,1,0,2,.126,21.452,21.452,0,0,1,.391-2.943c.16-.639.49-1.43,1.154-1.572a1.2,1.2,0,0,1,.9.182v6.757l-3.46,8.045a5.122,5.122,0,0,1-1.263,1.56l-5.293,4.148a1,1,0,0,0-.383.788v6a1,1,0,0,0,2,0V37.213l4.915-3.852a7.042,7.042,0,0,0,1.864-2.347l3.539-8.226a1.015,1.015,0,0,0,.081-.4v-7.16c0-1.067-1.162-1.847-2.285-1.985" fill="#161615"/>
      <path id="Path_141" data-name="Path 141" d="M44.627,30.682l6.517-6.507a1,1,0,0,0,0-1.414c-2.127-2.129-4.846-1.951-7.27.474l-3.116,3.11A8.609,8.609,0,0,0,34.4,34.61v8.115a1,1,0,1,0,2,0V34.61a6.611,6.611,0,0,1,4.922-6.341.988.988,0,0,0,.62-.275l3.35-3.344c1.33-1.329,2.528-1.69,3.642-1.09l-5.715,5.707a1,1,0,0,0,1.413,1.415" fill="#161615"/>
      <path id="Path_142" data-name="Path 142" d="M47.041,9.758A8.044,8.044,0,0,0,33.167,4.213,8.045,8.045,0,0,0,19.292,9.758c0,8.759,12.856,15.73,13.4,16.022a1,1,0,0,0,.942,0c.548-.292,13.4-7.263,13.4-16.022M33.167,23.75c-2.262-1.312-11.875-7.286-11.875-13.992A6.045,6.045,0,0,1,32.34,6.364a1.037,1.037,0,0,0,1.655,0A6.043,6.043,0,0,1,45.041,9.758c0,6.706-9.612,12.68-11.874,13.992" fill="#161615"/>
      <path id="Path_143" data-name="Path 143" d="M48.577,5.977a1,1,0,0,0,1.186.77l2.182-.464a1,1,0,1,0-.416-1.956l-2.182.464a1,1,0,0,0-.77,1.186" fill="#161615"/>
      <path id="Path_144" data-name="Path 144" d="M48.315,3.374a1,1,0,0,0,.615-.212l1.759-1.374A1,1,0,0,0,49.458.212L47.7,1.586a1,1,0,0,0,.616,1.788" fill="#161615"/>
      <path id="Path_145" data-name="Path 145" d="M14.389,6.283l2.182.464a1,1,0,1,0,.416-1.956l-2.182-.464a1,1,0,0,0-.416,1.956" fill="#161615"/>
      <path id="Path_146" data-name="Path 146" d="M17.406,3.162a1,1,0,1,0,1.23-1.576L16.877.212a1,1,0,1,0-1.231,1.576Z" fill="#161615"/>
    </g>
  </g>
</svg>
