<svg xmlns="http://www.w3.org/2000/svg" xmlns:xlink="http://www.w3.org/1999/xlink" width="103" height="103" viewBox="0 0 103 103">
  <defs>
    <clipPath id="clip-path">
      <rect id="Rectangle_32" data-name="Rectangle 32" width="53" height="53" transform="translate(0.37 0.37)" fill="none"/>
    </clipPath>
  </defs>
  <g id="Group_136" data-name="Group 136" transform="translate(24.629 24.631)">
    <circle id="Ellipse_35" data-name="Ellipse 35" cx="51.5" cy="51.5" r="51.5" transform="translate(-24.629 -24.631)" fill="#efefef"/>
    <g id="Group_22" data-name="Group 22" transform="translate(0)" clip-path="url(#clip-path)">
      <path id="Path_8" data-name="Path 8" d="M40.967,1A12.967,12.967,0,1,1,28,13.967,12.966,12.966,0,0,1,40.967,1" transform="translate(-1.106 -0.04)" fill="#fbc7b2"/>
      <path id="Path_9" data-name="Path 9" d="M27.127,48.348A21.221,21.221,0,1,1,48.348,27.127,21.245,21.245,0,0,1,27.127,48.348m0-40.521a19.3,19.3,0,1,0,19.3,19.3,19.322,19.322,0,0,0-19.3-19.3" transform="translate(-0.233 -0.233)"/>
      <path id="Path_10" data-name="Path 10" d="M20.059,40.649a5.823,5.823,0,1,1,5.822-5.823,5.829,5.829,0,0,1-5.822,5.823m0-9.725a3.9,3.9,0,1,0,3.9,3.9,3.906,3.906,0,0,0-3.9-3.9" transform="translate(-0.562 -1.146)"/>
      <path id="Path_11" data-name="Path 11" d="M35.432,22.888a3.594,3.594,0,1,1,3.594-3.594,3.6,3.6,0,0,1-3.594,3.594m0-5.267a1.673,1.673,0,1,0,1.673,1.673,1.676,1.676,0,0,0-1.673-1.673" transform="translate(-1.258 -0.62)"/>
      <path id="Path_12" data-name="Path 12" d="M17.84,24.171a.846.846,0,0,1-.375-.077.949.949,0,0,1-.307-.2.967.967,0,0,1-.279-.682.947.947,0,0,1,.067-.365,1.018,1.018,0,0,1,.211-.317.949.949,0,0,1,.307-.2.977.977,0,0,1,1.047.2.875.875,0,0,1,.211.317.956.956,0,0,1,.077.365.967.967,0,0,1-.96.96" transform="translate(-0.667 -0.879)"/>
      <path id="Path_13" data-name="Path 13" d="M23.27,17.421a1.177,1.177,0,0,1-.182-.019.579.579,0,0,1-.182-.058.534.534,0,0,1-.163-.086.917.917,0,0,1-.154-.115.964.964,0,0,1,1.364-1.364.757.757,0,0,1,.115.144,1.554,1.554,0,0,1,.1.173,1.161,1.161,0,0,1,.048.173.97.97,0,0,1,0,.384,1.161,1.161,0,0,1-.048.173,1.554,1.554,0,0,1-.1.173.757.757,0,0,1-.115.144,1.514,1.514,0,0,1-.144.115.673.673,0,0,1-.163.086.792.792,0,0,1-.182.058,1.3,1.3,0,0,1-.192.019" transform="translate(-0.881 -0.613)"/>
      <path id="Path_14" data-name="Path 14" d="M32.4,42.361a.96.96,0,0,1-.682-.288.929.929,0,0,1-.279-.672.967.967,0,0,1,.279-.682.961.961,0,0,1,1.642.682.967.967,0,0,1-.96.96" transform="translate(-1.242 -1.598)"/>
      <path id="Path_15" data-name="Path 15" d="M27.96,7.594a.961.961,0,0,1-.96-.96V.96a.96.96,0,1,1,1.921,0V6.633a.961.961,0,0,1-.96.96" transform="translate(-1.067)"/>
      <path id="Path_16" data-name="Path 16" d="M42.877,13.839A.96.96,0,0,1,42.2,12.2L46.21,8.187a.96.96,0,0,1,1.358,1.358l-4.012,4.012a.958.958,0,0,1-.679.281" transform="translate(-1.656 -0.312)"/>
      <path id="Path_17" data-name="Path 17" d="M54.727,28.921H49.054a.96.96,0,1,1,0-1.921h5.673a.96.96,0,1,1,0,1.921" transform="translate(-1.9 -1.067)"/>
      <path id="Path_18" data-name="Path 18" d="M46.889,47.85a.958.958,0,0,1-.679-.281L42.2,43.557A.96.96,0,0,1,43.557,42.2l4.012,4.012a.96.96,0,0,1-.679,1.64" transform="translate(-1.656 -1.656)"/>
      <path id="Path_19" data-name="Path 19" d="M27.96,55.688a.961.961,0,0,1-.96-.96V49.054a.96.96,0,1,1,1.921,0v5.673a.961.961,0,0,1-.96.96" transform="translate(-1.067 -1.9)"/>
      <path id="Path_20" data-name="Path 20" d="M8.866,47.85a.96.96,0,0,1-.679-1.64L12.2,42.2a.96.96,0,0,1,1.358,1.358L9.546,47.569a.958.958,0,0,1-.679.281" transform="translate(-0.312 -1.656)"/>
      <path id="Path_21" data-name="Path 21" d="M6.633,28.921H.96A.96.96,0,1,1,.96,27H6.633a.96.96,0,1,1,0,1.921" transform="translate(0 -1.067)"/>
      <path id="Path_22" data-name="Path 22" d="M12.878,13.839a.96.96,0,0,1-.68-.281L8.187,9.546A.96.96,0,0,1,9.546,8.187L13.558,12.2a.96.96,0,0,1-.679,1.64" transform="translate(-0.312 -0.312)"/>
      <path id="Path_23" data-name="Path 23" d="M37.405,36.779a4.823,4.823,0,0,1-1.873-.386,4.079,4.079,0,0,1-2.5-5.166,4.076,4.076,0,0,1,5.446-1.807,4.626,4.626,0,0,1,2.343,2.134A3.481,3.481,0,0,1,38.7,36.587a4.353,4.353,0,0,1-1.29.192M36.6,30.954A1.862,1.862,0,0,0,34.8,31.975a2.181,2.181,0,0,0,1.476,2.649,2.707,2.707,0,0,0,1.847.129,1.566,1.566,0,0,0,.984-2.327,2.7,2.7,0,0,0-1.378-1.235,2.92,2.92,0,0,0-1.134-.236" transform="translate(-1.295 -1.147)"/>
    </g>
  </g>
</svg>
