<svg xmlns="http://www.w3.org/2000/svg" xmlns:xlink="http://www.w3.org/1999/xlink" width="103" height="103" viewBox="0 0 103 103">
  <defs>
    <clipPath id="clip-path">
      <rect id="Rectangle_186" data-name="Rectangle 186" width="40.853" height="53" fill="none"/>
    </clipPath>
  </defs>
  <g id="Group_193" data-name="Group 193" transform="translate(31.074 24)">
    <circle id="Ellipse_29" data-name="Ellipse 29" cx="51.5" cy="51.5" r="51.5" transform="translate(-31.074 -24)" fill="#efefef"/>
    <g id="Group_192" data-name="Group 192" transform="translate(0 0)" clip-path="url(#clip-path)">
      <path id="Path_154" data-name="Path 154" d="M27,0A15.784,15.784,0,1,1,11.216,15.784,15.784,15.784,0,0,1,27,0" transform="translate(-1.931 0)" fill="#fbc7b2"/>
      <path id="Path_155" data-name="Path 155" d="M17.113,52.442a.828.828,0,0,0-.828.828V61.2a.828.828,0,1,0,1.656,0V53.27a.828.828,0,0,0-.828-.828" transform="translate(-2.803 -9.028)" fill="#161615"/>
      <path id="Path_156" data-name="Path 156" d="M26.693,52.442a.828.828,0,0,0-.828.828V61.2a.828.828,0,1,0,1.656,0V53.27a.828.828,0,0,0-.828-.828" transform="translate(-4.453 -9.028)" fill="#161615"/>
      <path id="Path_157" data-name="Path 157" d="M38.111,26.2a5.562,5.562,0,0,0-3.755-4.975l-3.633-1.238a.754.754,0,0,1-.518-.724V17.183a4.8,4.8,0,0,0,1.586-3.551V10.459a4,4,0,0,0-4-4H26.206a4,4,0,0,0-4,4v3.172a4.748,4.748,0,0,0,1.586,3.554V19.3A.754.754,0,0,1,23.27,20l-3.632,1.253a5.617,5.617,0,0,0-2.392,1.6.828.828,0,0,0,1.244,1.092,3.982,3.982,0,0,1,1.687-1.132l3.629-1.252a2.408,2.408,0,0,0,1.64-2.273V16.8a.667.667,0,0,0-.017-.083.773.773,0,0,0-.021-.106.843.843,0,0,0-.066-.191.734.734,0,0,0-.071-.105.751.751,0,0,0-.12-.136c-.016-.014-.023-.033-.041-.046a3.113,3.113,0,0,1-1.25-2.505V10.459a2.346,2.346,0,0,1,2.344-2.344h1.585a2.346,2.346,0,0,1,2.344,2.344v3.172a3.145,3.145,0,0,1-2.5,3.074.828.828,0,0,0,.165,1.639.886.886,0,0,0,.166-.017,4.786,4.786,0,0,0,.586-.175v1.108a2.42,2.42,0,0,0,1.64,2.291l3.633,1.238a3.921,3.921,0,0,1,2.657,3.72v9.215a5.527,5.527,0,0,1-4.1,5.323l-6.691,1.787a5.621,5.621,0,0,0-1.354-1.8l6.306-2.1a4.021,4.021,0,0,0,2.734-3.8V27.906a.828.828,0,1,0-1.656,0V35.14a2.365,2.365,0,0,1-1.606,2.228L22.772,39.81a.809.809,0,0,0-.238.137l-.993-.459a.784.784,0,0,1-.455-.7V37.074a3.984,3.984,0,0,0,1.19-2.823V32.665a4.024,4.024,0,0,0-4-4,4.005,4.005,0,0,0-4,4v1.586a3.9,3.9,0,0,0,1.172,2.816l.017.016v1.705a.776.776,0,0,1-.44.691l-1.474.682a5.479,5.479,0,0,0-.714.4l-6.69-2.012a.738.738,0,0,1-.527-.711V31.079a.828.828,0,0,0-1.656,0v6.757a2.4,2.4,0,0,0,1.716,2.3l5.773,1.736a5.671,5.671,0,0,0-.622,1.012l-5.852-.9A3.938,3.938,0,0,1,1.656,38.1V31.288a5.511,5.511,0,0,1,3.335-5.067l1.541-.662A2.424,2.424,0,0,0,8,23.328a.828.828,0,1,0-1.656,0,.772.772,0,0,1-.466.709l-1.4.6a49.477,49.477,0,0,0,1.349-9.516v-.264a3.73,3.73,0,0,1,3.725-3.572,3.724,3.724,0,0,1,3.71,3.579l.012.221a1.689,1.689,0,0,0-.543-.094H12.7a5.436,5.436,0,0,1-3.418-1.164A.827.827,0,1,0,8.24,15.118a7.125,7.125,0,0,0,4.449,1.532V17.6a3.137,3.137,0,0,1-5.021,2.509.828.828,0,0,0-1,1.323,4.768,4.768,0,0,0,4.431.7v1.206a2.4,2.4,0,0,0,1.451,2.209l1.565.676a5.521,5.521,0,0,1,1.65,1.1.828.828,0,0,0,1.152-1.19A7.161,7.161,0,0,0,14.776,24.7l-1.566-.676a.75.75,0,0,1-.452-.689V21.149a4.821,4.821,0,0,0,.971-1.209c.169,1.195.373,2.384.628,3.559a.828.828,0,0,0,1.618-.352,48,48,0,0,1-1.045-8.067l-.017-.289A5.38,5.38,0,0,0,9.551,9.632a5.391,5.391,0,0,0-5.38,5.19v.266a47.762,47.762,0,0,1-1.355,9.4l-.354,1.4A7.159,7.159,0,0,0,0,31.288V38.1a5.616,5.616,0,0,0,3.172,5.028V51.7a.828.828,0,1,0,1.656,0V43.633l5.536.853a5.506,5.506,0,0,0-.055.741v8.057a.828.828,0,1,0,1.656,0V45.227a3.94,3.94,0,0,1,2.28-3.562l1.491-.689a2.429,2.429,0,0,0,1.384-2.187V36.947c0-.019-.01-.035-.011-.054a.822.822,0,0,0-.278-.8,2.639,2.639,0,0,1-.215-.2,2.275,2.275,0,0,1-.685-1.644V32.665a2.348,2.348,0,0,1,2.344-2.344,2.367,2.367,0,0,1,2.344,2.344v1.586a2.35,2.35,0,0,1-2.049,2.326.828.828,0,0,0,.1,1.649.9.9,0,0,0,.105-.007,3.925,3.925,0,0,0,.651-.145v.714a2.434,2.434,0,0,0,1.4,2.195l1.474.681a3.939,3.939,0,0,1,2.28,3.562v8.057a.828.828,0,1,0,1.656,0V45.227a5.556,5.556,0,0,0-.06-.807l6.631-1.772c.168-.046.333-.1.5-.156V51.7a.828.828,0,1,0,1.656,0V41.668a7.176,7.176,0,0,0,3.167-5.8c0-.011.006-.019.006-.03V26.32a.755.755,0,0,0-.025-.122" transform="translate(0 -1.112)" fill="#161615"/>
    </g>
  </g>
</svg>
