<svg xmlns="http://www.w3.org/2000/svg" xmlns:xlink="http://www.w3.org/1999/xlink" width="103" height="103" viewBox="0 0 103 103">
  <defs>
    <clipPath id="clip-path">
      <rect id="Rectangle_182" data-name="Rectangle 182" width="53.244" height="56.619" transform="translate(0 0)" fill="none"/>
    </clipPath>
  </defs>
  <g id="Group_185" data-name="Group 185" transform="translate(21.879 30)">
    <circle id="Ellipse_36" data-name="Ellipse 36" cx="51.5" cy="51.5" r="51.5" transform="translate(-21.879 -30)" fill="#efefef"/>
    <g id="Group_184" data-name="Group 184" clip-path="url(#clip-path)">
      <path id="Path_131" data-name="Path 131" d="M19.79,17.039A19.79,19.79,0,1,1,0,36.829a19.79,19.79,0,0,1,19.79-19.79" fill="#fbc7b2"/>
      <path id="Path_132" data-name="Path 132" d="M28.2,17.134v.238c0,1.956-3.454,4.135-8.412,4.135s-8.411-2.179-8.411-4.135,3.454-4.135,8.411-4.135a12.608,12.608,0,0,1,6.668,1.674l.839.545,1.09-1.677-.839-.545a14.631,14.631,0,0,0-7.758-2c-5.838,0-10.411,2.695-10.411,6.135s4.573,6.135,10.411,6.135A13.646,13.646,0,0,0,28.2,21.02v1.97c0,1.956-3.454,4.136-8.412,4.136s-8.411-2.18-8.411-4.136h-2V34.228c0,3.44,4.573,6.135,10.411,6.135S30.2,37.668,30.2,34.228V16.372h-2ZM19.789,38.363c-4.957,0-8.411-2.179-8.411-4.135V32.256a13.65,13.65,0,0,0,8.411,2.488A13.646,13.646,0,0,0,28.2,32.256v1.972c0,1.956-3.454,4.135-8.412,4.135M28.2,28.609c0,1.956-3.454,4.135-8.412,4.135s-8.411-2.179-8.411-4.135V26.65a13.692,13.692,0,0,0,8.411,2.476A13.693,13.693,0,0,0,28.2,26.65v1.959Z" fill="#161615"/>
      <path id="Path_133" data-name="Path 133" d="M53.243,5.136h-2v1c0,1.956-3.455,4.135-8.412,4.135S34.42,8.092,34.42,6.136,37.874,2,42.831,2a12.538,12.538,0,0,1,6.815,1.774l.824.567L51.6,2.694l-.823-.567A14.364,14.364,0,0,0,42.831,0C36.993,0,32.42,2.695,32.42,6.136s4.573,6.135,10.411,6.135a13.646,13.646,0,0,0,8.412-2.488v1.971c0,1.956-3.455,4.136-8.412,4.136s-8.411-2.18-8.411-4.136h-2V34.228c0,3.441,4.573,6.136,10.411,6.136s10.412-2.695,10.412-6.136V6.509h-.031c.012-.124.031-.247.031-.373ZM42.831,38.364c-4.957,0-8.411-2.179-8.411-4.136V32.257a13.648,13.648,0,0,0,8.411,2.488,13.646,13.646,0,0,0,8.412-2.488v1.971c0,1.957-3.455,4.136-8.412,4.136m8.412-9.754c0,1.956-3.455,4.135-8.412,4.135S34.42,30.566,34.42,28.61V26.639a13.654,13.654,0,0,0,8.411,2.487,13.653,13.653,0,0,0,8.412-2.487V28.61Zm0-5.619c0,1.956-3.455,4.135-8.412,4.135s-8.411-2.179-8.411-4.135V21.02a13.648,13.648,0,0,0,8.411,2.488,13.646,13.646,0,0,0,8.412-2.488v1.971Zm0-5.618c0,1.956-3.455,4.135-8.412,4.135s-8.411-2.179-8.411-4.135V15.414a13.692,13.692,0,0,0,8.411,2.476,13.693,13.693,0,0,0,8.412-2.476v1.959Z" fill="#161615"/>
    </g>
  </g>
</svg>
