<svg xmlns="http://www.w3.org/2000/svg" xmlns:xlink="http://www.w3.org/1999/xlink" width="136.924" height="114.207" viewBox="0 0 136.924 114.207">
  <defs>
    <clipPath id="clip-path">
      <rect id="Rectangle_206" data-name="Rectangle 206" width="136.924" height="114.207" fill="none"/>
    </clipPath>
  </defs>
  <g id="Group_209" data-name="Group 209" transform="translate(0 0)">
    <g id="Group_208" data-name="Group 208" transform="translate(0 0)" clip-path="url(#clip-path)">
      <path id="Path_187" data-name="Path 187" d="M35.492,0A35.492,35.492,0,1,1,0,35.493,35.493,35.493,0,0,1,35.492,0" transform="translate(0 0)" fill="#fbc7b2"/>
      <path id="Path_188" data-name="Path 188" d="M86.763,93.434h44.225V10.265H12.125V93.434H54.86V106.2H45.452v2.979H97.661V106.2H88.253V97.445H85.274V106.2H57.839V93.434ZM15.1,90.455V80.028H120.417V77.049H15.1v-63.8h112.9V90.455H15.1Z" transform="translate(5.936 5.025)" fill="#161615"/>
      <path id="Path_189" data-name="Path 189" d="M48.933,36.318a3.942,3.942,0,1,1-3.943-3.943,3.943,3.943,0,0,1,3.943,3.943" transform="translate(20.096 15.849)" fill="#161615"/>
      <path id="Path_190" data-name="Path 190" d="M56.249,36.318a3.942,3.942,0,1,1-3.943-3.943,3.943,3.943,0,0,1,3.943,3.943" transform="translate(23.677 15.849)" fill="#161615"/>
      <path id="Path_191" data-name="Path 191" d="M63.565,36.318a3.942,3.942,0,1,1-3.943-3.943,3.943,3.943,0,0,1,3.943,3.943" transform="translate(27.259 15.849)" fill="#161615"/>
    </g>
  </g>
</svg>
