<svg xmlns="http://www.w3.org/2000/svg" xmlns:xlink="http://www.w3.org/1999/xlink" width="103" height="103" viewBox="0 0 103 103">
  <defs>
    <clipPath id="clip-path">
      <rect id="Rectangle_200" data-name="Rectangle 200" width="59.521" height="52.636" fill="none"/>
    </clipPath>
  </defs>
  <g id="Group_203" data-name="Group 203" transform="translate(21.479 27.727)">
    <circle id="Ellipse_31" data-name="Ellipse 31" cx="51.5" cy="51.5" r="51.5" transform="translate(-21.479 -27.727)" fill="#efefef"/>
    <g id="Group_202" data-name="Group 202" transform="translate(0 0)" clip-path="url(#clip-path)">
      <path id="Path_174" data-name="Path 174" d="M34.6,4.938A23.541,23.541,0,1,1,11.061,28.479,23.541,23.541,0,0,1,34.6,4.938" transform="translate(1.376 0.615)" fill="#fbc7b2"/>
      <path id="Path_175" data-name="Path 175" d="M20.271,12.313l5.135-10.7A1.124,1.124,0,1,0,23.38.639L18.013,11.82a1.123,1.123,0,0,0,0,.963l5.152,11.008L17.994,35.833a1.121,1.121,0,0,0,.021.934l4.732,9.751a1.125,1.125,0,1,0,2.024-.982l-4.508-9.289,5.163-12.034a1.126,1.126,0,0,0-.015-.92Z" transform="translate(2.228 0.001)" fill="#040506"/>
      <path id="Path_176" data-name="Path 176" d="M46.6,23.081c-.12-.218-.28-.469-.461-.753a9.047,9.047,0,0,1-1.765-4.972c-.034-2.918-3.741-8.6-10.416-8.6a10.833,10.833,0,0,0-9.706,5.868,1.126,1.126,0,0,0,1,1.784,1.229,1.229,0,0,0,1-.738,8.648,8.648,0,0,1,14.066-1.847c-8.171,2.21-8.879,7.383-9.543,12.4a34.142,34.142,0,0,1-.758,4.3c-1.518,5.7-3.708,7.294-3.815,7.368l-.946.578,1.174,1.919.958-.587c.3-.184,3.017-2,4.8-8.7A36.189,36.189,0,0,0,33,26.517c.659-4.975,1.18-8.9,8.393-10.66l.277-.067a4.053,4.053,0,0,1,.459,1.591,11.289,11.289,0,0,0,2.118,6.156c.152.237.287.448.388.63a3.633,3.633,0,0,1,.291.643l-.012,0c-.092.027-.179.053-.254.081-.554.2-2.391.987-2.754,2.586-.048.213-.092.435-.137.663-.356,1.813-.614,3.121-3.427,3.121a1.124,1.124,0,0,0-1.124,1.112L37.143,38.4a1.126,1.126,0,0,0,.956,1.124l5.161.788a1.109,1.109,0,0,0,.172.013,1.124,1.124,0,0,0,.168-2.235l-4.2-.642.047-4c3.653-.455,4.19-3.182,4.521-4.871.04-.206.08-.407.124-.6.065-.287.676-.732,1.334-.972l.116-.036a2.149,2.149,0,0,0,1.527-1.194,3.241,3.241,0,0,0-.471-2.7" transform="translate(2.991 1.09)" fill="#040506"/>
      <path id="Path_177" data-name="Path 177" d="M19.557,22.438c-.135-.055-3.317-1.431-4.305-7.168-.891-5.166-2.428-8.4-7.822-10.508,4.24-3.341,10.492-.869,10.818-.737A1.125,1.125,0,0,0,19.1,1.944C14.949.237,6.182-.8,2.722,7.5a11.028,11.028,0,0,0-.816,4.138A11.155,11.155,0,0,1,.149,17.561a1.123,1.123,0,0,0,.359,1.5l1.355.891A7.231,7.231,0,0,0,8.215,26.9l.1,4.569-4.46.921a1.125,1.125,0,1,0,.454,2.2l5.378-1.111a1.125,1.125,0,0,0,.9-1.127l-.143-6.512a1.126,1.126,0,0,0-1.085-1.1A5.136,5.136,0,0,1,4.1,19.358a1.122,1.122,0,0,0-.507-.966l-.983-.645a12.889,12.889,0,0,0,1.547-6A8.92,8.92,0,0,1,4.8,8.364a10.07,10.07,0,0,1,.987-1.825l.469.173c4.758,1.747,5.978,4.275,6.782,8.938,1.219,7.072,5.517,8.81,5.7,8.88l1.037.4.814-2.07Z" transform="translate(0 0.096)" fill="#040506"/>
    </g>
  </g>
</svg>
