<svg xmlns="http://www.w3.org/2000/svg" width="14.484" height="11.851" viewBox="0 0 14.484 11.851">
  <path id="list_to_do" data-name="list, to do" d="M15.484,3.658a.658.658,0,0,1-.658.658h-7.9A.658.658,0,0,1,6.925,3h7.9A.658.658,0,0,1,15.484,3.658Zm-.658,4.609h-7.9a.658.658,0,0,0,0,1.317h7.9a.658.658,0,0,0,0-1.317Zm0,5.267h-7.9a.658.658,0,0,0,0,1.317h7.9a.658.658,0,0,0,0-1.317ZM1.658,4.317H4.292A.658.658,0,0,0,4.292,3H1.658a.658.658,0,0,0,0,1.317Zm0,5.267H4.292a.658.658,0,0,0,0-1.317H1.658a.658.658,0,0,0,0,1.317Zm0,5.267H4.292a.658.658,0,0,0,0-1.317H1.658a.658.658,0,0,0,0,1.317Z" transform="translate(-1 -3)"/>
</svg>
