<svg xmlns="http://www.w3.org/2000/svg" xmlns:xlink="http://www.w3.org/1999/xlink" width="103" height="103" viewBox="0 0 103 103">
  <defs>
    <clipPath id="clip-path">
      <rect id="Rectangle_199" data-name="Rectangle 199" width="64.612" height="54.608" transform="translate(0 0)" fill="none"/>
    </clipPath>
  </defs>
  <g id="Group_201" data-name="Group 201" transform="translate(22.695 22.392)">
    <circle id="Ellipse_29" data-name="Ellipse 29" cx="51.5" cy="51.5" r="51.5" transform="translate(-22.695 -22.392)" fill="#efefef"/>
    <g id="Group_200" data-name="Group 200" clip-path="url(#clip-path)">
      <path id="Path_169" data-name="Path 169" d="M47.471,9.15A17.141,17.141,0,1,1,30.33,26.291,17.141,17.141,0,0,1,47.471,9.15" fill="#fbc7b2"/>
      <path id="Path_170" data-name="Path 170" d="M41.01,15.269l1.964-11.9L32.895,10.856,27.534,0l-5.7,11.17L11.8,3.322,13.647,16.06,0,14.095l11.838,11.48L13.23,24.14,5.821,16.954,16.01,18.421,14.494,7.968l8.021,6.272L27.5,4.458l4.659,9.434,8.031-5.969L38.6,17.567l10.246-1.21-5.935,6.91,1.517,1.3,9.276-10.8Z" fill="#161615"/>
      <path id="Path_171" data-name="Path 171" d="M37.343,20.024h-.87a3.477,3.477,0,0,0-2.093.707,3.514,3.514,0,0,0-2.94-1.6h-.872a3.477,3.477,0,0,0-2.092.708,3.512,3.512,0,0,0-2.941-1.6h-.87a3.512,3.512,0,0,0-2.941,1.6,3.478,3.478,0,0,0-2.093-.708H18.76a3.52,3.52,0,0,0-3.516,3.517v3.473l-4.293,6.9a6.088,6.088,0,0,0,1,7.628l5.5,5.168a2.7,2.7,0,0,1,.847,1.788l.469,6.971,2-.134-.47-6.972a4.689,4.689,0,0,0-1.473-3.111l-5.5-5.168a4.08,4.08,0,0,1-.669-5.114L16.8,27.408H27.128a1.448,1.448,0,0,1,1.446,1.446v1.285a1.448,1.448,0,0,1-1.446,1.447H19.9v2h7.226a3.45,3.45,0,0,0,3.446-3.447V28.854a3.4,3.4,0,0,0-.329-1.446H33.81a2.954,2.954,0,0,0,2.115.891H40.86V23.54a3.52,3.52,0,0,0-3.517-3.516m-20.1,5.384V22.649a1.518,1.518,0,0,1,1.516-1.517h.871a1.519,1.519,0,0,1,1.517,1.517v2.759Zm5.9,0v-3.65a1.519,1.519,0,0,1,1.517-1.517h.87a1.519,1.519,0,0,1,1.517,1.517v3.65Zm9.808,0h-3.9V22.649a1.518,1.518,0,0,1,1.516-1.517h.872a1.518,1.518,0,0,1,1.516,1.517v2.759Zm5.9.891H35.925a.97.97,0,0,1-.969-.969V23.54a1.518,1.518,0,0,1,1.517-1.516h.87A1.518,1.518,0,0,1,38.86,23.54Z" fill="#161615"/>
      <path id="Path_172" data-name="Path 172" d="M25.8,35.08l-.769-.64-1.279,1.537.769.64c2.019,1.68,3.276,3.25,3.539,4.421l.219.976,1.951-.439-.219-.975c-.37-1.645-1.786-3.5-4.211-5.52" fill="#161615"/>
      <path id="Path_173" data-name="Path 173" d="M38.86,39.288a8.334,8.334,0,0,1-1.792,5.153l-.271.343a4.7,4.7,0,0,0-.992,2.452l-.715,7.175,1.99.2.716-7.175a2.7,2.7,0,0,1,.569-1.409l.272-.343a10.351,10.351,0,0,0,2.223-6.394V30.355h-2Z" fill="#161615"/>
    </g>
  </g>
</svg>
