<svg xmlns="http://www.w3.org/2000/svg" width="11.851" height="11.851" viewBox="0 0 11.851 11.851">
  <path id="paragraph_inline_right_align" data-name="paragraph, inline, right, align" d="M13.851,2.593a.593.593,0,0,1-.593.593H2.593A.593.593,0,1,1,2.593,2H13.258A.593.593,0,0,1,13.851,2.593Zm-.593,2.963H10.3a.593.593,0,0,0,0,1.185h2.963a.593.593,0,0,0,0-1.185Zm0,3.555H10.3a.593.593,0,0,0,0,1.185h2.963a.593.593,0,0,0,0-1.185ZM2.593,13.851H13.258a.593.593,0,0,0,0-1.185H2.593a.593.593,0,1,0,0,1.185Zm0-5.333H7.087l-.766.766a.592.592,0,1,0,.838.838L8.937,8.344a.593.593,0,0,0,0-.838L7.159,5.729a.592.592,0,1,0-.838.838l.766.766H2.593a.593.593,0,1,0,0,1.185Z" transform="translate(-2 -2)"/>
</svg>
