<svg xmlns="http://www.w3.org/2000/svg" xmlns:xlink="http://www.w3.org/1999/xlink" width="103" height="103" viewBox="0 0 103 103">
  <defs>
    <clipPath id="clip-path">
      <rect id="Rectangle_197" data-name="Rectangle 197" width="57.194" height="53" fill="none"/>
    </clipPath>
  </defs>
  <g id="Group_197" data-name="Group 197" transform="translate(26.111 25)">
    <circle id="Ellipse_32" data-name="Ellipse 32" cx="51.5" cy="51.5" r="51.5" transform="translate(-26.111 -25)" fill="#efefef"/>
    <g id="Group_196" data-name="Group 196" transform="translate(0 0)" clip-path="url(#clip-path)">
      <path id="Path_161" data-name="Path 161" d="M40.514,6.5A17.973,17.973,0,1,1,22.541,24.473,17.973,17.973,0,0,1,40.514,6.5" transform="translate(-1.293 -0.373)" fill="#fbc7b2"/>
      <path id="Path_162" data-name="Path 162" d="M45.535,18.545A19.967,19.967,0,0,0,12.442,4.964,19.8,19.8,0,0,0,5.688,18.715L.083,31.2a.942.942,0,0,0,.86,1.329H5.806v8.513a5.582,5.582,0,0,0,5.576,5.576h7.893V53H21.16V44.728H11.382a3.694,3.694,0,0,1-3.691-3.691V31.582a.943.943,0,0,0-.943-.943H2.4l5.08-11.311a.918.918,0,0,0,.081-.336A18.085,18.085,0,0,1,27.03,1.939,18.136,18.136,0,0,1,43.655,18.676,17.4,17.4,0,0,1,41.7,28.347a.943.943,0,0,0,1.649.914,19.264,19.264,0,0,0,2.19-10.716" transform="translate(0 0)" fill="#161615"/>
      <path id="Path_163" data-name="Path 163" d="M41.961,34.43a.943.943,0,0,0-.943.943V54.032a.943.943,0,0,0,1.885,0V35.373a.943.943,0,0,0-.943-.943" transform="translate(-2.352 -1.974)" fill="#161615"/>
      <path id="Path_164" data-name="Path 164" d="M38.612,14.534a4.349,4.349,0,0,0-1.061-.778,4.406,4.406,0,0,0-5.743-5.4,4.209,4.209,0,0,0-.608-.769,4.423,4.423,0,0,0-5.924-.29,4.4,4.4,0,0,0-6.792,1.562,4.14,4.14,0,0,0-2.607.5,4.406,4.406,0,0,0-2.346,3.32,4.464,4.464,0,0,0,.075,1.535,4.365,4.365,0,0,0-1.624,4.1,4.437,4.437,0,0,0,3.047,3.546,4.255,4.255,0,0,0,2.319.089,4.378,4.378,0,0,0,4.037,2.644,4.258,4.258,0,0,0,1.227-.182,4.4,4.4,0,0,0,3.351,1.563,4.343,4.343,0,0,0,2.446-.746,4.352,4.352,0,0,0,2.86,1.06l.18-.013c.231.2.786,1.13,1.254,3.639a2.315,2.315,0,0,0,2.288,1.9h.069a2.329,2.329,0,0,0,2.233-1.961c.181-1.147.421-2.4.658-3.636a55.951,55.951,0,0,0,.914-5.718,4.415,4.415,0,0,0-.254-5.968M36.1,25.865c-.241,1.258-.485,2.529-.669,3.7a.444.444,0,0,1-.874.01c-.757-4.068-1.817-4.72-2.166-4.934a1.712,1.712,0,0,0-.9-.264,1.648,1.648,0,0,0-.318.03,2.5,2.5,0,0,1-1.871-.971,1.777,1.777,0,0,1,.478-1.739l.609-.719-1.439-1.218-.609.719a3.742,3.742,0,0,0-.93,3.155,2.479,2.479,0,0,1-3.253-.33,3.46,3.46,0,0,0,.549-2.328l-.111-.936-1.872.224.112.936a1.577,1.577,0,0,1-.4,1.26,2.5,2.5,0,0,1-3.513-1.817,1.648,1.648,0,0,1,1.192-1.284l.884-.327-.655-1.768-.884.327a3.562,3.562,0,0,0-2.34,2.464,2.373,2.373,0,0,1-1.515.014,2.572,2.572,0,0,1-1.751-2.025,2.5,2.5,0,0,1,.855-2.279,4.179,4.179,0,0,0,2.217.7,3.47,3.47,0,0,0,.437-.027l.934-.121-.24-1.87-.935.121a2.326,2.326,0,0,1-1.578-.505A2.51,2.51,0,0,1,15.4,12.91a2.545,2.545,0,0,1,1.376-1.9,2.276,2.276,0,0,1,1.971-.153c.168.087.848.479.767,1.124l-.117.936,1.871.234.117-.936A2.858,2.858,0,0,0,20.233,9.59,2.536,2.536,0,0,1,22.49,8.178a2.479,2.479,0,0,1,1.757.743,4.908,4.908,0,0,0,.968,4.287l.626.7,1.408-1.253-.626-.7a3.2,3.2,0,0,1-.485-2.85,1.755,1.755,0,0,1,.15-.187,2.536,2.536,0,0,1,3.578,0,2.441,2.441,0,0,1,.5.778,5.731,5.731,0,0,0-.19,2.637l.232.913,1.828-.465L32,11.869a4.048,4.048,0,0,1,.168-1.606,2.505,2.505,0,0,1,3.561,2.963L35.6,13.2l-.187.715-.429.711a2.724,2.724,0,0,1-1.675.525l-.943.041.084,1.883.942-.041a4.067,4.067,0,0,0,3.355-1.565,2.42,2.42,0,0,1,.529.4,2.523,2.523,0,0,1,.334,3.163,3.907,3.907,0,0,0-4.532,2.35l-.4.853,1.706.8.4-.853a2.03,2.03,0,0,1,2.155-1.364c-.145,1.4-.5,3.247-.842,5.048" transform="translate(-0.684 -0.361)" fill="#161615"/>
      <path id="Path_165" data-name="Path 165" d="M23.447,14.369l-.928-.169-.337,1.855.928.169a1.936,1.936,0,0,1,1.306.663,1.065,1.065,0,0,1,.061.788l-.328.872,1.764.665.333-.882a2.942,2.942,0,0,0-.183-2.36,3.529,3.529,0,0,0-2.615-1.6" transform="translate(-1.272 -0.814)" fill="#161615"/>
      <path id="Path_166" data-name="Path 166" d="M30.572,15.138l.092-.935-1.877-.185-.092.938c-.126,1.277.2,3.547,2.239,3.954l.925.185.37-1.849-.924-.185c-.847-.17-.735-1.882-.732-1.924" transform="translate(-1.644 -0.804)" fill="#161615"/>
    </g>
  </g>
</svg>
