<svg xmlns="http://www.w3.org/2000/svg" xmlns:xlink="http://www.w3.org/1999/xlink" width="103" height="103" viewBox="0 0 103 103">
  <defs>
    <clipPath id="clip-path">
      <rect id="Rectangle_198" data-name="Rectangle 198" width="42.289" height="47.452" transform="translate(0 0)" fill="none"/>
    </clipPath>
  </defs>
  <g id="Group_199" data-name="Group 199" transform="translate(30.855 25)">
    <circle id="Ellipse_34" data-name="Ellipse 34" cx="51.5" cy="51.5" r="51.5" transform="translate(-30.855 -25)" fill="#efefef"/>
    <g id="Group_198" data-name="Group 198" clip-path="url(#clip-path)">
      <path id="Path_167" data-name="Path 167" d="M20.928,0A17.141,17.141,0,1,1,3.787,17.141,17.141,17.141,0,0,1,20.928,0" fill="#fbc7b2"/>
      <path id="Path_168" data-name="Path 168" d="M19.534,23.287h3.221a2.62,2.62,0,0,0,2.618-2.617V18.454h2.216a2.62,2.62,0,0,0,2.617-2.618V12.615A2.62,2.62,0,0,0,27.589,10H25.373V7.781a2.622,2.622,0,0,0-2.618-2.618H19.534a2.623,2.623,0,0,0-2.619,2.618V10H14.7a2.622,2.622,0,0,0-2.618,2.619v3.221A2.622,2.622,0,0,0,14.7,18.454h2.215V20.67a2.621,2.621,0,0,0,2.619,2.617M14.7,16.441a.606.606,0,0,1-.6-.6V12.615a.6.6,0,0,1,.6-.6h3.222A1.006,1.006,0,0,0,18.929,11h0V7.781a.6.6,0,0,1,.6-.6h3.221a.6.6,0,0,1,.605.6V11a1,1,0,0,0,1,1.007h3.224a.6.6,0,0,1,.6.6v3.221a.605.605,0,0,1-.6.6H24.367a1,1,0,0,0-1.007,1h0V20.67a.6.6,0,0,1-.605.6H19.534a.6.6,0,0,1-.6-.6V17.447a1.006,1.006,0,0,0-1.006-1.006H14.7ZM1.007,47.452a1.007,1.007,0,0,0,1.007-1.006h0V39.4H40.275v7.048a1.007,1.007,0,0,0,2.014,0V30.335a9.073,9.073,0,0,0-9.062-9.062H29a5.533,5.533,0,0,1-.66.152,5.588,5.588,0,0,1-.6,1.862h5.485A7.059,7.059,0,0,1,40.2,29.328H18.124V26.107a5.609,5.609,0,0,1-2.014-.986v4.207H13.064a4.983,4.983,0,0,0,1.032-3.02,5.034,5.034,0,1,0-10.069,0,4.984,4.984,0,0,0,1.033,3.02H2.014V10.2A1.007,1.007,0,0,0,0,10.2V46.445a1.006,1.006,0,0,0,1.006,1.007ZM9.062,23.287a3.02,3.02,0,1,1-3.021,3.021,3.02,3.02,0,0,1,3.021-3.021M2.014,31.342H40.275v6.041H2.014Z" fill="#040506"/>
    </g>
  </g>
</svg>
