<svg xmlns="http://www.w3.org/2000/svg" xmlns:xlink="http://www.w3.org/1999/xlink" width="103" height="103" viewBox="0 0 103 103">
  <defs>
    <clipPath id="clip-path">
      <rect id="Rectangle_181" data-name="Rectangle 181" width="66.133" height="48.541" fill="none"/>
    </clipPath>
  </defs>
  <g id="Group_183" data-name="Group 183" transform="translate(17.934 30)">
    <circle id="Ellipse_32" data-name="Ellipse 32" cx="51.5" cy="51.5" r="51.5" transform="translate(-17.934 -30)" fill="#efefef"/>
    <g id="Group_182" data-name="Group 182" clip-path="url(#clip-path)">
      <path id="Path_129" data-name="Path 129" d="M48.992,14.259A17.141,17.141,0,1,1,31.851,31.4,17.141,17.141,0,0,1,48.992,14.259" fill="#fbc7b2"/>
      <path id="Path_130" data-name="Path 130" d="M64.149,14.736,34.888.1a1.006,1.006,0,0,0-.9,0L4.733,14.736a.974.974,0,0,0-.246.178.64.64,0,0,0-.041.05,1,1,0,0,0-.158.233.847.847,0,0,0-.038.087.988.988,0,0,0-.07.346V28.006L.051,40.394A1,1,0,0,0,1,41.711H9.358a1,1,0,0,0,.949-1.316L6.18,28.007V17.248l10.54,5.27v14.01a1,1,0,0,0,.617.924,44.563,44.563,0,0,0,17.1,3.429,44.621,44.621,0,0,0,17.107-3.429,1,1,0,0,0,.617-.924V22.518l11.989-5.993a1,1,0,0,0,0-1.789M2.387,39.711,5.18,31.332l2.791,8.379ZM50.16,35.855a42.352,42.352,0,0,1-31.44,0V23.518l15.273,7.635a1,1,0,0,0,.9,0L50.16,23.518ZM50.722,21l-.009,0L34.441,29.141,18.167,21h0L9.417,16.63H34.441a1,1,0,1,0,0-2H9.416L34.441,2.118,61.465,15.63Z" fill="#040506"/>
    </g>
  </g>
</svg>
