<svg xmlns="http://www.w3.org/2000/svg" xmlns:xlink="http://www.w3.org/1999/xlink" width="103" height="103" viewBox="0 0 103 103">
  <defs>
    <clipPath id="clip-path">
      <rect id="Rectangle_185" data-name="Rectangle 185" width="58.217" height="58.773" fill="none"/>
    </clipPath>
  </defs>
  <g id="Group_191" data-name="Group 191" transform="translate(25.85 18.768)">
    <circle id="Ellipse_31" data-name="Ellipse 31" cx="51.5" cy="51.5" r="51.5" transform="translate(-25.85 -18.768)" fill="#efefef"/>
    <g id="Group_190" data-name="Group 190" transform="translate(0 0)" clip-path="url(#clip-path)">
      <path id="Path_147" data-name="Path 147" d="M41.973,0A17.821,17.821,0,1,1,24.152,17.821,17.821,17.821,0,0,1,41.973,0" transform="translate(-1.577 0)" fill="#fbc7b2"/>
      <path id="Path_148" data-name="Path 148" d="M33.02,46.168a15.036,15.036,0,0,1-5.075-.876.935.935,0,1,1,.629-1.76A13.183,13.183,0,0,0,43.494,23.1a.934.934,0,0,1,.082-1.228L48.7,16.75a.934.934,0,0,1,1.322,0L51.7,18.431l.6-6.612-6.611.6,1.681,1.68a.934.934,0,0,1,0,1.322l-5.123,5.123a.934.934,0,0,1-1.228.082,13.193,13.193,0,0,0-20.078,15.8.934.934,0,0,1-1.71.755A15.053,15.053,0,0,1,41.49,18.661l3.9-3.9-2.431-2.43a.935.935,0,0,1,.577-1.592l9.716-.883a.935.935,0,0,1,1.015,1.015l-.883,9.716a.935.935,0,0,1-1.592.577L49.36,18.733l-3.9,3.9A14.913,14.913,0,0,1,48.087,31.1,15.084,15.084,0,0,1,33.02,46.168" transform="translate(-1.172 -0.644)" fill="#161615"/>
      <path id="Path_149" data-name="Path 149" d="M16.833,59.848H13.3a.935.935,0,0,1-.935-.935v-2.6h-2.6a.935.935,0,0,1-.935-.935V51.847a.935.935,0,0,1,.935-.935h2.6V46.346a15.063,15.063,0,1,1,8.121-28.875.935.935,0,0,1-.674,1.744,13.194,13.194,0,1,0-6.4,25.4.934.934,0,0,1,.82.927v6.3a.934.934,0,0,1-.935.935H10.7v1.664h2.6a.935.935,0,0,1,.935.935v2.6H15.9v-2.6a.935.935,0,0,1,.935-.935h2.6V52.782h-2.6a.934.934,0,0,1-.935-.935v-6.3a.934.934,0,0,1,.82-.927A13.2,13.2,0,0,0,27.341,26.674a.934.934,0,1,1,1.738-.688,15.067,15.067,0,0,1-11.311,20.36v4.567h2.6a.935.935,0,0,1,.935.935V55.38a.935.935,0,0,1-.935.935h-2.6v2.6a.935.935,0,0,1-.935.935" transform="translate(0 -1.076)" fill="#161615"/>
      <path id="Path_150" data-name="Path 150" d="M22.281,42.9a.933.933,0,0,1-.656-.269L21.5,42.5a.935.935,0,0,1,1.312-1.332l.126.124a.935.935,0,0,1-.656,1.6" transform="translate(-1.386 -2.671)" fill="#161615"/>
      <path id="Path_151" data-name="Path 151" d="M28.141,24.376a.933.933,0,0,1-.656-.269l-.126-.123a.935.935,0,0,1,1.312-1.332l.126.124a.935.935,0,0,1-.656,1.6" transform="translate(-1.768 -1.462)" fill="#161615"/>
      <path id="Path_152" data-name="Path 152" d="M15.375,42.492a10.65,10.65,0,0,1,0-21.3.935.935,0,0,1,0,1.869,8.781,8.781,0,0,0,0,17.562.935.935,0,0,1,0,1.869" transform="translate(-0.309 -1.384)" fill="#161615"/>
      <path id="Path_153" data-name="Path 153" d="M34.008,42.492a.935.935,0,1,1,0-1.869,8.781,8.781,0,1,0,0-17.562.935.935,0,1,1,0-1.869,10.65,10.65,0,1,1,0,21.3" transform="translate(-2.16 -1.384)" fill="#161615"/>
    </g>
  </g>
</svg>
