<svg xmlns="http://www.w3.org/2000/svg" xmlns:xlink="http://www.w3.org/1999/xlink" width="103" height="103" viewBox="0 0 103 103">
  <defs>
    <clipPath id="clip-path">
      <rect id="Rectangle_201" data-name="Rectangle 201" width="44.646" height="51.964" fill="none"/>
    </clipPath>
  </defs>
  <g id="Group_318" data-name="Group 318" transform="translate(-337 -1922)">
    <g id="Ellipse_28" data-name="Ellipse 28" transform="translate(337 1922)" fill="#efefef" stroke="#fbc7b2" stroke-width="8">
      <circle cx="51.5" cy="51.5" r="51.5" stroke="none"/>
      <circle cx="51.5" cy="51.5" r="47.5" fill="none"/>
    </g>
    <g id="Group_205" data-name="Group 205" transform="translate(370.354 1949.036)">
      <g id="Group_204" data-name="Group 204" transform="translate(0 0)" clip-path="url(#clip-path)">
        <path id="Path_178" data-name="Path 178" d="M27.805,3.143a15.23,15.23,0,1,1-15.23,15.23,15.23,15.23,0,0,1,15.23-15.23" transform="translate(1.611 0.403)" fill="#fbc7b2"/>
        <path id="Path_179" data-name="Path 179" d="M7.525,51.964a1.157,1.157,0,0,1-.889-.417A1.137,1.137,0,0,1,6.4,50.6l4.033-19.014-9.29.111a1.157,1.157,0,0,1-.994-.57,1.133,1.133,0,0,1,.017-1.145L18.071.543A1.129,1.129,0,0,1,19.035,0h.023a1.13,1.13,0,0,1,1.1,1.363L16.129,20.377l9.29-.111A1.127,1.127,0,0,1,26.4,21.98L8.489,51.422a1.129,1.129,0,0,1-.965.542m4.3-22.649a1.13,1.13,0,0,1,1.1,1.363L9.966,44.652,23.411,22.546l-8.664.1a1.127,1.127,0,0,1-1.117-1.362L16.594,7.314,3.15,29.418l8.663-.1Z" transform="translate(0 0)" fill="#040506"/>
      </g>
    </g>
  </g>
</svg>
