<svg xmlns="http://www.w3.org/2000/svg" xmlns:xlink="http://www.w3.org/1999/xlink" width="103" height="103" viewBox="0 0 103 103">
  <defs>
    <clipPath id="clip-path">
      <rect id="Rectangle_183" data-name="Rectangle 183" width="57.279" height="47.911" fill="none"/>
    </clipPath>
  </defs>
  <g id="Group_187" data-name="Group 187" transform="translate(26.359 30.089)">
    <circle id="Ellipse_35" data-name="Ellipse 35" cx="51.5" cy="51.5" r="51.5" transform="translate(-26.359 -30.089)" fill="#efefef"/>
    <g id="Group_186" data-name="Group 186" transform="translate(0 0)" clip-path="url(#clip-path)">
      <path id="Path_134" data-name="Path 134" d="M34.5,2.031A20.219,20.219,0,1,1,14.277,22.25,20.219,20.219,0,0,1,34.5,2.031" transform="translate(2.564 0.365)" fill="#fbc7b2"/>
      <path id="Path_135" data-name="Path 135" d="M19.165,14.373a2.4,2.4,0,0,1-2.4-2.4V1.2A1.2,1.2,0,0,0,15.57,0H8.384a1.2,1.2,0,0,0-1.2,1.2V11.977a2.4,2.4,0,0,1-2.4,2.4A4.8,4.8,0,0,0,0,19.165V46.714a1.2,1.2,0,0,0,1.2,1.2h21.56a1.2,1.2,0,0,0,1.2-1.2V19.165a4.8,4.8,0,0,0-4.79-4.791M2.4,26.351H21.56v9.582H2.4ZM14.373,4.791H9.582V2.4h4.791ZM4.791,16.769a4.8,4.8,0,0,0,4.79-4.791V7.187h4.791v4.79a4.8,4.8,0,0,0,4.791,4.791,2.4,2.4,0,0,1,2.4,2.4v4.791H2.4V19.165a2.4,2.4,0,0,1,2.4-2.4M2.4,38.329H21.56v7.187H2.4Z" transform="translate(0 0)" fill="#161615"/>
      <path id="Path_136" data-name="Path 136" d="M42.336,14.216H25.568a1.2,1.2,0,0,0-1.2,1.2v10.78a9.564,9.564,0,0,0,8.384,9.461v7.308H29.161a1.2,1.2,0,1,0,0,2.4h9.582a1.2,1.2,0,1,0,0-2.4H35.15V35.655a9.564,9.564,0,0,0,8.384-9.461V15.413a1.2,1.2,0,0,0-1.2-1.2m-1.2,11.977a7.187,7.187,0,1,1-14.373,0V16.612H41.139Z" transform="translate(4.376 2.553)" fill="#161615"/>
    </g>
  </g>
</svg>
