<svg xmlns="http://www.w3.org/2000/svg" xmlns:xlink="http://www.w3.org/1999/xlink" width="103" height="103" viewBox="0 0 103 103">
  <defs>
    <clipPath id="clip-path">
      <rect id="Rectangle_38" data-name="Rectangle 38" width="47.447" height="46.65" fill="none"/>
    </clipPath>
  </defs>
  <g id="Group_179" data-name="Group 179" transform="translate(30.551 30)">
    <circle id="Ellipse_30" data-name="Ellipse 30" cx="51.5" cy="51.5" r="51.5" transform="translate(-30.551 -30)" fill="#efefef"/>
    <g id="Group_30" data-name="Group 30" transform="translate(0 0)" clip-path="url(#clip-path)">
      <path id="Path_31" data-name="Path 31" d="M45.5,34.161a10.3,10.3,0,1,1-10.3,10.3,10.3,10.3,0,0,1,10.3-10.3" transform="translate(-8.353 -8.105)" fill="#fbc7b2"/>
      <path id="Path_32" data-name="Path 32" d="M.85,45.434H40.776V52.4H0V45.434Zm38.227,1.7H1.7v3.573H39.077Z" transform="translate(0 -10.78)" fill="#191919"/>
      <path id="Path_33" data-name="Path 33" d="M22.192,0A14.628,14.628,0,0,1,36.78,14.587V36.353H7.605V14.587A14.628,14.628,0,0,1,22.192,0m9.1,5.486a12.888,12.888,0,0,0-21.99,9.1V34.655H35.081V14.587a12.85,12.85,0,0,0-3.787-9.1" transform="translate(-1.804 0)" fill="#191919"/>
      <rect id="Rectangle_36" data-name="Rectangle 36" width="1.699" height="20.388" transform="translate(19.538 8.203)" fill="#191919"/>
      <rect id="Rectangle_37" data-name="Rectangle 37" width="10.194" height="1.699" transform="translate(15.291 11.601)" fill="#191919"/>
    </g>
  </g>
</svg>
