<svg xmlns="http://www.w3.org/2000/svg" xmlns:xlink="http://www.w3.org/1999/xlink" width="103" height="103" viewBox="0 0 103 103">
  <defs>
    <clipPath id="clip-path">
      <rect id="Rectangle_33" data-name="Rectangle 33" width="48.876" height="43" fill="none"/>
    </clipPath>
  </defs>
  <g id="Group_178" data-name="Group 178" transform="translate(24.998 33)">
    <circle id="Ellipse_28" data-name="Ellipse 28" cx="51.5" cy="51.5" r="51.5" transform="translate(-24.998 -33)" fill="#efefef"/>
    <g id="Group_24" data-name="Group 24" transform="translate(0 0)" clip-path="url(#clip-path)">
      <path id="Path_24" data-name="Path 24" d="M13.986,14.505A13.986,13.986,0,1,1,0,28.491,13.986,13.986,0,0,1,13.986,14.505" transform="translate(0 0.523)" fill="#fbc7b2"/>
      <path id="Path_25" data-name="Path 25" d="M26.151,37.352a1.039,1.039,0,0,1-.354-.063c-.909-.329-22.244-8.275-22.244-24.5a12.8,12.8,0,0,1,22.6-8.225A12.766,12.766,0,0,1,35.945,0h0a12.813,12.813,0,0,1,12.8,12.793c0,16.221-21.336,24.166-22.244,24.5a1.037,1.037,0,0,1-.353.063M16.333,2.076A10.718,10.718,0,0,0,5.624,12.793c0,13.693,17.774,21.314,20.527,22.412,2.752-1.1,20.526-8.719,20.526-22.412A10.739,10.739,0,0,0,35.949,2.072h0a10.7,10.7,0,0,0-8.933,4.8,1.037,1.037,0,0,1-1.727,0,10.724,10.724,0,0,0-8.953-4.793" transform="translate(0.128 0)"/>
    </g>
  </g>
</svg>
